<svg
  width="256"
  height="256"
  viewBox="0 0 256 256"
  fill="none"
  xmlns="http://www.w3.org/2000/svg"
>
  <path
    d="M153.481 31L127.5 76L101.519 31H15L127.5 225.858L240 31H153.481Z"
    fill="#41B883"
  />
  <path
    d="M153.481 31L127.5 76L101.519 31H60.0002L127.5 147.912L195 31H153.481Z"
    fill="#34495E"
  />
  <g filter="url(#filter0_d_1109_287)">
    <path
      d="M178.789 99H77.8105C75.706 99 74 100.706 74 102.81V152.347C74 154.451 75.706 156.157 77.8105 156.157H178.789C180.893 156.157 182.599 154.451 182.599 152.347V102.81C182.599 100.706 180.893 99 178.789 99Z"
      fill="#F9F036"
    />
    <path
      d="M90.072 112.031V142.548H99.743C107.48 142.548 112.423 136.187 112.423 127.075C112.423 118.134 107.867 112.031 99.829 112.031H90.072ZM99.3993 138.336H95.3589V116.243H99.4852C104.514 116.243 107.007 120.713 107.007 127.075C107.007 133.565 104.342 138.336 99.3993 138.336ZM128.374 143.279C136.025 143.279 139.765 137.82 139.765 128.837V125.742C139.765 116.759 136.025 111.3 128.374 111.3C120.723 111.3 116.984 116.759 116.984 125.742V128.837C116.984 137.82 120.723 143.279 128.374 143.279ZM128.374 138.938C124.248 138.938 122.4 135.843 122.4 128.966V125.613C122.4 118.736 124.248 115.641 128.374 115.641C132.501 115.641 134.349 118.736 134.349 125.613V128.966C134.349 135.843 132.501 138.938 128.374 138.938ZM155.845 143.279C162.894 143.279 166.72 138.809 167.15 132.362L161.906 131.373C161.647 136.273 159.671 138.895 156.06 138.895C152.02 138.895 150.043 135.327 150.043 128.665V125.613C150.043 118.908 151.934 115.684 156.06 115.684C159.628 115.684 161.647 118.349 161.906 123.163L167.193 122.347C166.634 114.825 162.637 111.3 156.103 111.3C148.452 111.3 144.627 116.802 144.627 125.699V128.88C144.627 137.777 148.323 143.279 155.845 143.279Z"
      fill="black"
    />
  </g>
  <defs>
    <filter
      id="filter0_d_1109_287"
      x="70"
      y="99"
      width="116.599"
      height="65.1573"
      filterUnits="userSpaceOnUse"
      color-interpolation-filters="sRGB"
    >
      <feFlood flood-opacity="0" result="BackgroundImageFix" />
      <feColorMatrix
        in="SourceAlpha"
        type="matrix"
        values="0 0 0 0 0 0 0 0 0 0 0 0 0 0 0 0 0 0 127 0"
        result="hardAlpha"
      />
      <feOffset dy="4" />
      <feGaussianBlur stdDeviation="2" />
      <feComposite in2="hardAlpha" operator="out" />
      <feColorMatrix
        type="matrix"
        values="0 0 0 0 0 0 0 0 0 0 0 0 0 0 0 0 0 0 0.25 0"
      />
      <feBlend
        mode="normal"
        in2="BackgroundImageFix"
        result="effect1_dropShadow_1109_287"
      />
      <feBlend
        mode="normal"
        in="SourceGraphic"
        in2="effect1_dropShadow_1109_287"
        result="shape"
      />
    </filter>
  </defs>
</svg>
